<svg width="23.000000" height="21.000000" viewBox="0 0 23 21" fill="none" xmlns="http://www.w3.org/2000/svg" xmlns:xlink="http://www.w3.org/1999/xlink">
	<desc>
			Created with Pixso.
	</desc>
	<defs/>
	<path id="Vector" d="M10.58 20.89L10.57 20.88L10.55 20.87C10.4 20.79 10.25 20.7 10.1 20.62C8.32 19.56 6.66 18.32 5.15 16.92C2.46 14.41 -0.38 10.7 -0.38 6.12C-0.38 2.7 2.49 -0.01 5.96 -0.01C6.93 -0.01 7.88 0.2 8.75 0.62C9.62 1.03 10.39 1.64 11 2.39C11.6 1.64 12.37 1.03 13.24 0.62C14.11 0.2 15.06 -0.01 16.03 -0.01C19.5 -0.01 22.37 2.7 22.37 6.12C22.37 10.7 19.53 14.41 16.84 16.92C15.33 18.32 13.67 19.56 11.89 20.62C11.74 20.7 11.59 20.79 11.44 20.87L11.42 20.88L11.41 20.89L11.41 20.89C11.28 20.96 11.14 20.99 11 20.99C10.85 20.99 10.71 20.96 10.58 20.89L10.58 20.89Z" fill="#FFFFFF" fill-opacity="1.000000" fill-rule="nonzero"/>
</svg>
